<svg fill="none" height="1280" viewBox="0 0 1281 1280" width="1281"
    xmlns="http://www.w3.org/2000/svg" xmlns:xlink="http://www.w3.org/1999/xlink">
    <linearGradient id="a" gradientUnits="userSpaceOnUse" x1="883.889" x2="639.848" y1="27.1132"
        y2="866.902">
        <stop offset="0" stop-color="#fff" />
        <stop offset="1" stop-color="#f9fafb" />
    </linearGradient>
    <linearGradient id="b" gradientUnits="userSpaceOnUse" x1="1002.57" x2="791.219" y1="652.45"
        y2="1094.91">
        <stop offset="0" stop-color="#ff1639" />
        <stop offset="1" stop-color="#ff1639" stop-opacity="0" />
    </linearGradient>
    <g clip-rule="evenodd" fill-rule="evenodd">
        <path
            d="m815.931 94.6439c9.719 12.0651 14.675 28.3461 24.588 60.9091l216.541 711.348c-80.061-41.533-167.096-71.488-258.886-87.649l-140.992-476.454c-2.307-7.796-9.467-13.144-17.597-13.144-8.151 0-15.325 5.376-17.613 13.199l-139.284 476.158c-92.217 16.089-179.65 46.098-260.054 87.782l217.606-711.405c9.943-32.506 14.914-48.759 24.634-60.8027 8.581-10.6322 19.742-18.8895 32.419-23.9851 14.359-5.7718 31.356-5.7718 65.349-5.7718h155.425c34.037 0 51.056 0 65.429 5.7839 12.688 5.1061 23.856 13.38 32.435 24.0316z"
            fill="url(#a)" />
        <path
            d="m841.843 900.754c-35.697 30.525-106.948 51.343-189.021 51.343-100.733 0-185.163-31.36-207.566-73.536-8.009 24.171-9.806 51.835-9.806 69.507 0 0-5.277 86.772 55.078 147.132 0-31.34 25.406-56.74 56.745-56.74 53.716 0 53.656 46.86 53.607 84.88-.002 1.14-.003 2.27-.003 3.39 0 57.71 35.27 107.18 85.431 128.04-7.492-15.41-11.695-32.72-11.695-51 0-55.04 32.313-75.54 69.867-99.36h.001c29.88-18.95 63.079-40 85.959-82.24 11.939-22.04 18.718-47.277 18.718-74.102 0-16.495-2.564-32.392-7.315-47.314z"
            fill="#ff5d01" />
        <path
            d="m841.843 900.754c-35.697 30.525-106.948 51.343-189.021 51.343-100.733 0-185.163-31.36-207.566-73.536-8.009 24.171-9.806 51.835-9.806 69.507 0 0-5.277 86.772 55.078 147.132 0-31.34 25.406-56.74 56.745-56.74 53.716 0 53.656 46.86 53.607 84.88-.002 1.14-.003 2.27-.003 3.39 0 57.71 35.27 107.18 85.431 128.04-7.492-15.41-11.695-32.72-11.695-51 0-55.04 32.313-75.54 69.867-99.36h.001c29.88-18.95 63.079-40 85.959-82.24 11.939-22.04 18.718-47.277 18.718-74.102 0-16.495-2.564-32.392-7.315-47.314z"
            fill="url(#b)" />
    </g>
</svg>